<svg width="14" height="14" viewBox="0 0 14 14" fill="none" xmlns="http://www.w3.org/2000/svg">
<path d="M7.37656 3.26562H6.625C6.55625 3.26562 6.5 3.32187 6.5 3.39062V7.69219C6.5 7.73281 6.51875 7.77031 6.55156 7.79375L9.13437 9.67969C9.19062 9.72031 9.26875 9.70937 9.30937 9.65312L9.75625 9.04375C9.79843 8.98594 9.78593 8.90781 9.72968 8.86875L7.50156 7.25781V3.39062C7.50156 3.32187 7.44531 3.26562 7.37656 3.26562ZM10.8109 4.44063L13.2609 5.03906C13.3391 5.05781 13.4156 4.99844 13.4156 4.91875L13.4281 2.39531C13.4281 2.29063 13.3078 2.23125 13.2266 2.29688L10.7641 4.22031C10.7454 4.23471 10.7313 4.25407 10.7232 4.27616C10.7151 4.29825 10.7134 4.32218 10.7183 4.3452C10.7232 4.36821 10.7345 4.38938 10.7509 4.40626C10.7673 4.42314 10.7881 4.43505 10.8109 4.44063ZM13.4312 9.14531L12.5453 8.84062C12.5144 8.83004 12.4806 8.83196 12.4511 8.84597C12.4216 8.85999 12.3988 8.88499 12.3875 8.91562C12.3578 8.99531 12.3266 9.07344 12.2937 9.15156C12.0156 9.80938 11.6172 10.4016 11.1078 10.9094C10.6041 11.4147 10.0071 11.8174 9.35 12.0953C8.66925 12.3831 7.93751 12.5308 7.19843 12.5297C6.45156 12.5297 5.72812 12.3844 5.04687 12.0953C4.38975 11.8174 3.79278 11.4147 3.28906 10.9094C2.78125 10.4016 2.38281 9.80938 2.10312 9.15156C1.81688 8.47045 1.67024 7.73882 1.67187 7C1.67187 6.25313 1.81718 5.52813 2.10625 4.84688C2.38437 4.18906 2.78281 3.59688 3.29218 3.08906C3.7959 2.58378 4.39287 2.18103 5.05 1.90312C5.72812 1.61406 6.45312 1.46875 7.2 1.46875C7.94687 1.46875 8.67031 1.61406 9.35156 1.90312C10.0087 2.18103 10.6057 2.58378 11.1094 3.08906C11.2687 3.25 11.4187 3.41719 11.5562 3.59375L12.4906 2.8625C11.2609 1.29062 9.34687 0.279687 7.19687 0.28125C3.45312 0.282812 0.446871 3.32344 0.484371 7.06875C0.521871 10.7484 3.51406 13.7188 7.2 13.7188C10.0984 13.7188 12.5672 11.8813 13.5078 9.30781C13.5312 9.24219 13.4969 9.16875 13.4312 9.14531Z" fill="black"/>
</svg>
